<?xml version="1.0" encoding="UTF-8"?><svg id="a" xmlns="http://www.w3.org/2000/svg" viewBox="0 0 100 100"><defs><style>.b{fill:#ffa624;}.c{fill:#331f07;}.d{font-family:Bungee-Shade, Bungee;font-size:19.71px;}</style></defs><polygon class="c" points="65.46 98.02 50.49 76.32 35.66 98.12 36.31 71.77 11.5 80.68 27.51 59.74 2.21 52.38 27.47 44.85 11.32 24.01 36.18 32.77 35.37 6.42 50.34 28.12 65.16 6.33 64.52 32.68 89.32 23.76 73.31 44.7 98.62 52.07 73.36 59.6 89.5 80.43 64.64 71.68 65.46 98.02"/><polygon class="b" points="64.4 93.52 49.43 71.82 34.6 93.61 35.25 67.26 10.44 76.18 26.45 55.24 1.15 47.87 26.41 40.34 10.26 19.51 35.12 28.26 34.31 1.92 49.28 23.62 64.1 1.82 63.46 28.17 88.26 19.26 72.25 40.2 97.56 47.56 72.3 55.09 88.44 75.93 63.58 67.17 64.4 93.52"/><text class="d" transform="translate(26 52.95) scale(.73 1)"><tspan x="0" y="0">SWAG</tspan></text></svg>