<?xml version="1.0" encoding="UTF-8"?><svg id="a" xmlns="http://www.w3.org/2000/svg" viewBox="0 0 46.99 43.25"><defs><style>.c{fill:#fff;}.d{opacity:.9;}</style></defs><g id="b"><g class="d"><path class="c" d="M46.86,43.13H.12V.13H46.86V43.13ZM16.38,22.8l.08-.03c.58,.59,1.16,1.18,1.75,1.76,.16,.15,.21,.31,.21,.53,0,3.41,0,6.81,0,10.22,0,1.75-.01,3.49,0,5.24,.02,1.3,1.18,2.25,2.46,2.04,1.05-.16,1.79-1.05,1.79-2.19,0-2.28,0-4.56,0-6.84,0-.12,0-.24,0-.37h1.21c0,.13,0,.24,0,.35,0,2.32,0,4.64,0,6.96,0,.99,.69,1.85,1.62,2.06,1.37,.32,2.62-.7,2.62-2.16,0-5.11,0-10.23,0-15.34,0-.21,.06-.35,.21-.5,.62-.61,1.23-1.22,1.84-1.84,.11-.11,.21-.24,.37-.42,.01,.16,.02,.24,.02,.32,0,1.84,0,3.68,0,5.52,0,.8-.01,1.6,0,2.4,.03,1.39,1.16,2.34,2.5,2.12,.99-.16,1.74-1.07,1.74-2.14,0-2.27,0-4.54,0-6.81,0-.14,0-.28,0-.43h1.21c0,.56,0,1.11,0,1.65,0,1.86,0,3.72,0,5.58,0,1,.62,1.84,1.51,2.1,.9,.27,1.85-.07,2.38-.87,.28-.42,.35-.89,.35-1.39,0-5.07,0-10.13,0-15.2,0-.14,.04-.31,.13-.41,.75-.79,1.51-1.56,2.27-2.33,1.04-1.04,2.08-2.07,3.12-3.12,.74-.75,.74-1.87,.01-2.59-.74-.73-1.86-.71-2.64,.07-1.37,1.36-2.73,2.72-4.1,4.08-.1,.09-.26,.17-.39,.17-2.18,.01-4.35,.01-6.53,0-.13,0-.29-.08-.39-.17-.54-.51-1.06-1.05-1.59-1.57-.88-.88-1.75-1.76-2.64-2.62-.58-.55-1.28-.61-2-.31-.67,.29-1.06,.98-1.04,1.73,.02,.56,.3,.98,.69,1.37,1.74,1.75,3.48,3.5,5.21,5.27,.09,.1,.16,.26,.16,.4,.02,.61,.01,1.22,0,1.83,0,.11-.06,.24-.14,.32-1.16,1.17-2.33,2.34-3.51,3.5-.09,.09-.24,.16-.37,.16-2.18,0-4.35,.01-6.53,0-.14,0-.32-.08-.42-.18-.95-.93-1.87-1.88-2.83-2.8-.31-.3-.46-.6-.41-1.02,.03-.22-.02-.44,0-.66,.01-.13,.07-.28,.15-.37,1.16-1.19,2.32-2.37,3.49-3.55,.63-.64,1.27-1.26,1.9-1.91,.5-.52,.65-1.14,.43-1.82-.2-.65-.66-1.07-1.33-1.22-.65-.14-1.23,.02-1.71,.5-1.37,1.37-2.74,2.74-4.12,4.1-.11,.11-.31,.2-.47,.2-2.14,.01-4.28,0-6.41,.01-.21,0-.35-.06-.5-.21-1.37-1.37-2.73-2.74-4.12-4.1-.74-.73-1.86-.72-2.57-.02-.73,.72-.73,1.84,0,2.59,1.11,1.13,2.22,2.26,3.33,3.38,.67,.68,1.35,1.35,2.02,2.03,.09,.1,.17,.26,.17,.39,0,3.27,0,6.55,0,9.82,0,1.88,0,3.76,0,5.64,0,1.1,.8,2.02,1.84,2.14,1.31,.16,2.4-.8,2.4-2.15,0-2.32,0-4.64,0-6.96,0-.1,0-.2,0-.31h1.19c0,.1,.02,.18,.02,.26,0,.84,0,1.68,0,2.52,0,1.51,0,3.02,0,4.52,.01,1.44,1.37,2.44,2.72,2.05,.93-.27,1.53-1.12,1.53-2.17,0-2.82,0-5.65,0-8.47,0-.11,0-.22,0-.33Zm6.91-2.49c2.39,0,4.25-1.88,4.25-4.28,0-2.22-1.79-4.29-4.27-4.28-2.45,0-4.28,2.06-4.25,4.36,.03,2.35,1.9,4.22,4.27,4.21Zm12.11-9.91c2.37,.02,4.26-1.83,4.28-4.19,.03-2.42-1.83-4.34-4.22-4.35-2.38-.02-4.27,1.86-4.29,4.26-.02,2.38,1.84,4.27,4.22,4.29ZM11.5,3.03c-2.45-.04-4.26,2.08-4.24,4.3,.02,2.38,1.88,4.25,4.26,4.24,2.37,0,4.25-1.89,4.24-4.26,0-2.23-1.8-4.33-4.26-4.28Z"/><path d="M16.38,22.8c0,.11,0,.22,0,.33,0,2.82,0,5.65,0,8.47,0,1.06-.6,1.9-1.53,2.17-1.36,.4-2.71-.61-2.72-2.05-.02-1.51,0-3.02,0-4.52,0-.84,0-1.68,0-2.52,0-.08-.01-.17-.02-.26h-1.19c0,.11,0,.21,0,.31,0,2.32,0,4.64,0,6.96,0,1.35-1.09,2.31-2.4,2.15-1.05-.12-1.84-1.04-1.84-2.14,0-1.88,0-3.76,0-5.64,0-3.27,0-6.55,0-9.82,0-.13-.08-.29-.17-.39-.67-.68-1.35-1.35-2.02-2.03-1.11-1.12-2.22-2.25-3.33-3.38-.74-.76-.73-1.87,0-2.59,.71-.71,1.83-.71,2.57,.02,1.38,1.36,2.75,2.73,4.12,4.1,.15,.15,.29,.21,.5,.21,2.14,0,4.28,0,6.41-.01,.16,0,.35-.08,.47-.2,1.38-1.36,2.75-2.73,4.12-4.1,.48-.48,1.06-.64,1.71-.5,.67,.15,1.12,.57,1.33,1.22,.21,.68,.07,1.31-.43,1.82-.63,.64-1.27,1.27-1.9,1.91-1.17,1.18-2.33,2.36-3.49,3.55-.09,.09-.14,.24-.15,.37-.02,.22,.02,.44,0,.66-.05,.42,.1,.72,.41,1.02,.96,.92,1.88,1.87,2.83,2.8,.1,.1,.28,.18,.42,.18,2.18,.01,4.35,0,6.53,0,.12,0,.28-.07,.37-.16,1.18-1.16,2.34-2.33,3.51-3.5,.08-.08,.13-.21,.14-.32,.01-.61,.02-1.22,0-1.83,0-.14-.07-.3-.16-.4-1.73-1.76-3.47-3.52-5.21-5.27-.38-.39-.67-.8-.69-1.37-.02-.75,.37-1.44,1.04-1.73,.72-.31,1.42-.25,2,.31,.9,.86,1.76,1.74,2.64,2.62,.53,.53,1.05,1.06,1.59,1.57,.1,.09,.26,.17,.39,.17,2.18,.01,4.35,.01,6.53,0,.13,0,.3-.07,.39-.17,1.37-1.35,2.73-2.72,4.1-4.08,.78-.77,1.9-.8,2.64-.07,.72,.72,.73,1.84-.01,2.59-1.03,1.05-2.08,2.08-3.12,3.12-.76,.77-1.52,1.55-2.27,2.33-.09,.09-.13,.27-.13,.41,0,5.07,0,10.13,0,15.2,0,.5-.08,.97-.35,1.39-.53,.8-1.49,1.14-2.38,.87-.89-.27-1.51-1.11-1.51-2.1,0-1.86,0-3.72,0-5.58,0-.54,0-1.08,0-1.65h-1.21c0,.15,0,.29,0,.43,0,2.27,0,4.54,0,6.81,0,1.07-.75,1.98-1.74,2.14-1.34,.22-2.47-.73-2.5-2.12-.02-.8,0-1.6,0-2.4,0-1.84,0-3.68,0-5.52,0-.08,0-.17-.02-.32-.15,.17-.25,.3-.37,.42-.61,.62-1.22,1.23-1.84,1.84-.15,.14-.21,.29-.21,.5,0,5.11,0,10.23,0,15.34,0,1.45-1.24,2.47-2.62,2.16-.94-.22-1.62-1.07-1.62-2.06,0-2.32,0-4.64,0-6.96,0-.11,0-.22,0-.35h-1.21c0,.13,0,.25,0,.37,0,2.28,0,4.56,0,6.84,0,1.14-.74,2.03-1.79,2.19-1.29,.2-2.45-.74-2.46-2.04-.02-1.75,0-3.49,0-5.24,0-3.41,0-6.81,0-10.22,0-.21-.05-.37-.21-.53-.59-.58-1.17-1.17-1.75-1.76l-.08,.03Z"/><path d="M23.29,20.31c-2.37,0-4.24-1.86-4.27-4.21-.03-2.3,1.8-4.35,4.25-4.36,2.47,0,4.27,2.06,4.27,4.28,0,2.4-1.86,4.28-4.25,4.28Z"/><path d="M35.4,10.4c-2.38-.02-4.24-1.91-4.22-4.29,.02-2.4,1.9-4.27,4.29-4.26,2.39,.02,4.25,1.93,4.22,4.35-.03,2.36-1.91,4.21-4.28,4.19Z"/><path d="M11.5,3.03c2.46-.05,4.26,2.05,4.26,4.28,0,2.37-1.87,4.26-4.24,4.26-2.38,0-4.24-1.86-4.26-4.24-.02-2.22,1.79-4.34,4.24-4.3Z"/></g></g>
<animate attributeName="opacity" values="0.9;0.5;0.9" dur="3s" repeatCount="indefinite"/>
</svg>