<?xml version="1.0" encoding="UTF-8"?>
<svg id="a" xmlns="http://www.w3.org/2000/svg" viewBox="0 0 83 83"><defs><style>.b{fill:#fff;}</style></defs><path class="b" d="M83,83H0V0H83V83Zm-55.73-3.75c2.7,0,5.39,0,8.09,0,1.04,0,1.35-.32,1.35-1.35,0-4.75,.02-9.49-.02-14.24,0-.46-.22-1.02-.54-1.34-5.14-5.19-10.31-10.35-15.49-15.51-1.71-1.71-4.18-1.74-5.78-.13-1.6,1.61-1.54,4.06,.16,5.79,1.57,1.59,3.16,3.17,4.75,4.75,.55,.55,1.11,1.1,1.66,1.66,.42,.43,.51,.92,.08,1.36-.46,.47-.97,.38-1.42-.06-.1-.09-.19-.19-.29-.28-2.02-2.02-4.05-4.04-6.06-6.07-3.15-3.17-2.29-7.88,1.74-9.78,.24-.11,.49-.49,.49-.74,.03-4.04,.03-8.09,.01-12.13,0-1.08-.36-2.06-1.05-2.91-1.25-1.54-3.3-2.14-5.17-1.5-1.93,.66-3.17,2.37-3.17,4.51-.01,8.55,0,17.1,0,25.65,0,1.4,.53,2.56,1.51,3.54,3.04,3.03,6.05,6.07,9.11,9.08,.51,.5,.7,1,.69,1.7-.04,2.18-.02,4.37-.01,6.55,0,1.22,.25,1.48,1.46,1.48,2.64,0,5.28,0,7.93,0Zm48.97-35.13h0c0-4.32,.03-8.63,0-12.95-.02-2.65-2.09-4.66-4.69-4.66-2.58,0-4.67,2.05-4.69,4.68-.03,4.05-.02,8.09,0,12.14,0,.24,.22,.6,.44,.7,4.13,1.96,4.95,6.63,1.72,9.88-1.67,1.68-3.36,3.36-5.03,5.04-.44,.44-.84,.94-1.34,1.29-.27,.19-.79,.25-1.08,.12-.24-.12-.43-.6-.43-.92,0-.26,.28-.56,.5-.78,2.03-2.05,4.07-4.09,6.12-6.13,.78-.77,1.27-1.67,1.33-2.77,.09-1.67-.81-3.16-2.3-3.85-1.57-.73-3.28-.42-4.6,.9-5.18,5.16-10.35,10.32-15.49,15.51-.32,.32-.54,.89-.55,1.34-.04,4.72-.03,9.44-.02,14.16,0,1.15,.28,1.44,1.42,1.44,5.34,0,10.68,0,16.02,0,1.11,0,1.38-.28,1.39-1.39,0-2.21,.03-4.42-.01-6.64-.01-.7,.18-1.2,.69-1.7,3-2.95,5.95-5.95,8.94-8.91,1.17-1.15,1.71-2.48,1.69-4.12-.04-4.13-.01-8.25-.01-12.38ZM37.49,26.19c-.57-5.08-5.71-8.09-10.22-7.02-.3,.07-.7,.52-.73,.82-.11,1.04-.25,2.12-.07,3.13,.77,4.53,4.3,7.3,8.96,7.11,.55-.02,.95,.07,1.33,.52,1.53,1.8,2.64,3.81,3.2,6.1,.23,.92,.35,1.87,.51,2.78-.2,.08-.25,.11-.3,.11-.11,.02-.21,.02-.32,.03-5.69,.35-10.75,2.34-15.17,5.93-.93,.76-.95,1.16-.09,2.03,5.28,5.29,10.56,10.57,15.85,15.85,.78,.78,1.18,.79,1.96,0,5.3-5.3,10.61-10.6,15.91-15.91,.79-.79,.77-1.24-.07-1.92-3.4-2.79-7.24-4.66-11.56-5.49-1.39-.27-2.81-.41-4.26-.62,.2-2.89,1.16-5.5,2.85-7.86,.74-1.04,1.5-1.59,2.94-1.58,5.28,.06,9.24-4.94,8.16-10.04-.14-.66-.47-1.06-1.11-1.06-1.26,0-2.55-.09-3.76,.18-3.33,.76-5.93,3.74-6.15,6.9,1.55-1.16,3.16-2.1,5.03-2.52-2.75,2.86-5.78,5.45-8.02,8.83v-9.92h-1.92v9.94c-2.19-3.43-5.25-5.99-8.17-8.98,2.07,.55,3.69,1.47,5.24,2.66Zm4.87-3.97c6.29-4.59,6.2-13.61-.27-18.06-.57-.39-1.03-.22-1.55,.13-5.42,3.73-6.36,11.34-1.99,16.24,.53,.59,1.14,1.1,1.9,1.82,0-.53,0-.79,0-1.04,0-1.81,0-3.61,0-5.42,0-1.14,.31-1.65,.99-1.63,.64,.03,.92,.51,.92,1.61,0,2.07,0,4.13,0,6.34Z"/><path d="M27.27,79.25c-2.64,0-5.28,0-7.93,0-1.21,0-1.46-.25-1.46-1.48,0-2.18-.03-4.37,.01-6.55,.01-.7-.18-1.2-.69-1.7-3.05-3.01-6.07-6.06-9.11-9.08-.98-.98-1.52-2.13-1.51-3.54,0-8.55,0-17.1,0-25.65,0-2.14,1.24-3.85,3.17-4.51,1.87-.64,3.93-.04,5.17,1.5,.68,.85,1.04,1.83,1.05,2.91,.01,4.04,.02,8.09-.01,12.13,0,.26-.25,.63-.49,.74-4.04,1.9-4.89,6.61-1.74,9.78,2.01,2.03,4.04,4.04,6.06,6.07,.1,.1,.19,.19,.29,.28,.46,.44,.96,.53,1.42,.06,.43-.44,.34-.93-.08-1.36-.55-.56-1.1-1.11-1.66-1.66-1.58-1.58-3.17-3.16-4.75-4.75-1.7-1.72-1.76-4.17-.16-5.79,1.6-1.62,4.07-1.58,5.78,.13,5.18,5.16,10.35,10.32,15.49,15.51,.32,.32,.53,.89,.54,1.34,.04,4.75,.03,9.49,.02,14.24,0,1.04-.31,1.35-1.35,1.35-2.7,0-5.39,0-8.09,0Z"/><path d="M76.23,44.12c0,4.13-.03,8.25,.01,12.38,.02,1.64-.52,2.97-1.69,4.12-3,2.95-5.94,5.96-8.94,8.91-.51,.5-.7,1-.69,1.7,.04,2.21,.02,4.42,.01,6.64,0,1.11-.28,1.39-1.39,1.39-5.34,0-10.68,0-16.02,0-1.14,0-1.42-.29-1.42-1.44,0-4.72-.02-9.44,.02-14.16,0-.45,.23-1.02,.55-1.34,5.15-5.19,10.32-10.35,15.49-15.51,1.32-1.32,3.03-1.63,4.6-.9,1.49,.69,2.39,2.18,2.3,3.85-.06,1.11-.56,2-1.33,2.77-2.05,2.03-4.09,4.08-6.12,6.13-.22,.22-.5,.52-.5,.78,0,.32,.18,.8,.43,.92,.29,.14,.81,.07,1.08-.12,.5-.35,.9-.85,1.34-1.29,1.68-1.68,3.36-3.35,5.03-5.04,3.23-3.25,2.41-7.92-1.72-9.88-.21-.1-.44-.46-.44-.7-.03-4.05-.04-8.09,0-12.14,.02-2.63,2.12-4.67,4.69-4.68,2.6,0,4.67,2.01,4.69,4.66,.03,4.32,0,8.63,0,12.95h0Z"/><path d="M37.49,26.19c-1.55-1.18-3.16-2.11-5.24-2.66,2.93,2.99,5.98,5.55,8.17,8.98v-9.94h1.92v9.92c2.24-3.38,5.27-5.97,8.02-8.83-1.87,.42-3.48,1.36-5.03,2.52,.22-3.16,2.82-6.14,6.15-6.9,1.21-.28,2.5-.18,3.76-.18,.64,0,.97,.4,1.11,1.06,1.07,5.11-2.89,10.1-8.16,10.04-1.44-.02-2.2,.54-2.94,1.58-1.68,2.36-2.65,4.97-2.85,7.86,1.45,.21,2.87,.35,4.26,.62,4.32,.83,8.16,2.71,11.56,5.49,.84,.69,.86,1.14,.07,1.92-5.3,5.31-10.6,10.61-15.91,15.91-.78,.78-1.17,.78-1.96,0-5.28-5.28-10.57-10.57-15.85-15.85-.86-.86-.85-1.27,.09-2.03,4.43-3.59,9.48-5.58,15.17-5.93,.11,0,.22-.01,.32-.03,.05,0,.1-.04,.3-.11-.16-.9-.28-1.85-.51-2.78-.56-2.29-1.67-4.3-3.2-6.1-.38-.45-.77-.55-1.33-.52-4.66,.19-8.19-2.58-8.96-7.11-.17-1.01-.04-2.09,.07-3.13,.03-.31,.43-.75,.73-.82,4.51-1.08,9.65,1.93,10.22,7.02Z"/><path d="M42.36,22.22c0-2.21,0-4.28,0-6.34,0-1.11-.28-1.59-.92-1.61-.68-.03-.99,.48-.99,1.63,0,1.81,0,3.61,0,5.42,0,.26,0,.51,0,1.04-.76-.72-1.37-1.23-1.9-1.82-4.37-4.9-3.43-12.51,1.99-16.24,.51-.35,.97-.52,1.55-.13,6.48,4.44,6.57,13.47,.27,18.06Z"/>
<animate attributeName="fill" values="#ddd;#005e40;#005e42;#ddd" dur="8s" repeatCount="indefinite"/>
</svg>